<?xml version="1.0" encoding="UTF-8" standalone="no"?>
<!-- Created with Inkscape (http://www.inkscape.org/) -->

<svg
   xmlns:dc="http://purl.org/dc/elements/1.1/"
   xmlns:cc="http://creativecommons.org/ns#"
   xmlns:rdf="http://www.w3.org/1999/02/22-rdf-syntax-ns#"
   xmlns:svg="http://www.w3.org/2000/svg"
   xmlns="http://www.w3.org/2000/svg"
   xmlns:xlink="http://www.w3.org/1999/xlink"
   xmlns:sodipodi="http://sodipodi.sourceforge.net/DTD/sodipodi-0.dtd"
   xmlns:inkscape="http://www.inkscape.org/namespaces/inkscape"
   width="89mm"
   height="219mm"
   viewBox="0 0 89 219"
   version="1.1"
   id="svg8"
   inkscape:version="0.92.1 r15371"
   sodipodi:docname="hesGallery.svg">
  <defs
     id="defs2">
    <linearGradient
       id="linearGradient4517"
       inkscape:collect="always">
      <stop
         id="stop4513"
         offset="0"
         style="stop-color:#ba0000;stop-opacity:1" />
      <stop
         id="stop4515"
         offset="1"
         style="stop-color:#e95700;stop-opacity:1" />
    </linearGradient>
    <linearGradient
       inkscape:collect="always"
       id="linearGradient4497">
      <stop
         style="stop-color:#d40000;stop-opacity:1;"
         offset="0"
         id="stop4493" />
      <stop
         style="stop-color:#d40000;stop-opacity:0;"
         offset="1"
         id="stop4495" />
    </linearGradient>
    <linearGradient
       inkscape:collect="always"
       xlink:href="#linearGradient4497"
       id="linearGradient4499"
       x1="11.185803"
       y1="112.95942"
       x2="96.028237"
       y2="112.95942"
       gradientUnits="userSpaceOnUse" />
    <linearGradient
       inkscape:collect="always"
       xlink:href="#linearGradient4517"
       id="linearGradient4511"
       gradientUnits="userSpaceOnUse"
       x1="31.709354"
       y1="46.371094"
       x2="74.472481"
       y2="178.13498" />
  </defs>
  <sodipodi:namedview
     id="base"
     pagecolor="#ffffff"
     bordercolor="#666666"
     borderopacity="1.0"
     inkscape:pageopacity="0.0"
     inkscape:pageshadow="2"
     inkscape:zoom="0.49497475"
     inkscape:cx="169.4278"
     inkscape:cy="328.66348"
     inkscape:document-units="mm"
     inkscape:current-layer="layer1"
     showgrid="false"
     inkscape:window-width="1920"
     inkscape:window-height="1017"
     inkscape:window-x="1912"
     inkscape:window-y="-8"
     inkscape:window-maximized="1" />
  <metadata
     id="metadata5">
    <rdf:RDF>
      <cc:Work
         rdf:about="">
        <dc:format>image/svg+xml</dc:format>
        <dc:type
           rdf:resource="http://purl.org/dc/dcmitype/StillImage" />
        <dc:title></dc:title>
      </cc:Work>
    </rdf:RDF>
  </metadata>
  <g
     inkscape:label="Layer 1"
     inkscape:groupmode="layer"
     id="layer1"
     transform="translate(0,-78)">
    <g
       id="layer1-8"
       inkscape:label="Layer 1"
       transform="translate(-9.7932527,74.765559)"
       style="fill:url(#linearGradient4499);fill-opacity:1">
      <path
         inkscape:connector-curvature="0"
         id="path4518"
         d="m 13.999839,219.71425 c 0.74184,-0.8829 6.095561,-7.20785 11.897171,-14.05545 l 10.54837,-12.45017 4.035459,-2.06889 c 10.27766,-5.26912 19.13142,-10.95116 27.0673,-17.37085 15.68416,-12.68763 25.26793,-26.19338 28.00926,-39.47157 0.25476,-1.23402 0.46657,-2.13549 0.47067,-2.00328 0.004,0.13222 -0.0638,1.32216 -0.15092,2.64432 -1.01661,15.42864 -7.04899,28.46678 -18.20625,39.35023 -9.03892,8.81711 -21.55084,16.1107 -36.56255,21.31347 l -1.96559,0.68124 -12.457979,11.77568 c -6.85189,6.47661 -12.812531,12.10977 -13.245861,12.5181 -0.59544,0.56111 -0.45844,0.35037 0.56092,-0.86283 z m 26.33564,-32.33605 c 11.45158,-17.50683 13.68931,-34.3525 6.95531,-52.35971 -2.76172,-7.38505 -5.82818,-13.28166 -13.918149,-26.76373 C 27.85851,99.065372 26.36138,96.450292 24.15181,92.148436 18.93768,81.996926 16.569499,74.387358 16.082469,66.219629 14.998139,48.034511 25.5762,30.089781 48.763239,10.779687 c 2.75517,-2.2945012 7.11891,-5.7335912 7.27514,-5.7335912 0.0553,0 -0.17983,0.558913 -0.52244,1.24203 -5.40898,10.7847562 -6.64843,21.5396912 -3.79157,32.9002922 1.15534,4.594354 2.52046,8.202196 5.12735,13.550945 2.93052,6.012765 5.69904,10.662469 11.44162,19.216076 11.8158,17.599717 13.61626,20.403187 16.60136,25.849763 11.11437,20.279158 10.90756,36.714238 -0.67497,53.640138 -8.14041,11.89582 -22.96515,24.52794 -43.50041,37.06659 l -1.873829,1.14414 z m 11.62831,-10.45122 c 9.16603,-9.78857 15.15355,-17.84521 19.41378,-26.12269 3.94945,-7.67362 5.75203,-14.40352 5.75203,-21.47509 0,-5.21484 -0.82563,-9.45385 -2.84049,-14.58384 -2.28254,-5.8115 -5.76897,-11.68104 -12.23236,-20.593648 -5.71538,-7.881136 -7.53967,-10.445886 -9.24111,-12.992006 -8.07243,-12.079931 -11.80127,-21.68263 -12.72216,-32.762766 -0.20291,-2.441435 -0.11342,-7.853146 0.16961,-10.256762 0.50942,-4.326221 1.5985,-9.386071 2.88474,-13.402401 0.34189,-1.067572 0.55809,-1.877513 0.48045,-1.799871 -0.24601,0.246007 -2.16935,4.698111 -3.02551,7.003373 -2.399909,6.461886 -3.431659,12.051477 -3.436199,18.615923 -0.004,6.138531 0.75814,10.592121 2.866899,16.747368 2.43739,7.114472 5.66669,13.101023 14.17771,26.282956 6.07675,9.411694 7.90469,12.454994 10.25177,17.067884 8.80075,17.29683 8.75606,32.25342 -0.14754,49.37186 -3.75181,7.2134 -8.54201,13.94973 -16.17465,22.746 -1.08754,1.25334 1.24865,-1.09706 3.82303,-3.84629 z m 13.46669,-10.28625 c 2.56276,-2.24653 6.34673,-6.1618 8.25801,-8.54452 3.12477,-3.89554 4.95861,-6.7214 6.81213,-10.49716 2.22649,-4.53552 3.44715,-8.47768 3.99342,-12.89688 0.25041,-2.02579 0.20716,-6.60268 -0.082,-8.67573 -0.9031,-6.47492 -3.70819,-12.91002 -8.30564,-19.05378 -2.06277,-2.75656 -2.70706,-3.41826 -1.40439,-1.44236 4.05336,6.14824 6.39236,11.927 7.50337,18.53792 0.41798,2.48712 0.41745,9.28818 -9.6e-4,11.91185 -0.73846,4.63095 -2.20025,9.10439 -4.45017,13.61872 -3.05392,6.12751 -6.63801,11.01243 -12.05505,16.43038 -1.49819,1.49845 -2.58625,2.61256 -2.41789,2.47581 0.16835,-0.13675 1.13545,-0.97566 2.14911,-1.86425 z m -6.08222,-22.16678 c 0.35057,-4.68269 0.0463,-10.10622 -0.8182,-14.58384 -1.4804,-7.66774 -4.12308,-14.03912 -10.96793,-26.44321 -3.3762,-6.118258 -6.58355,-12.370994 -7.93294,-15.465274 C 35.02492,77.423563 32.90012,67.279689 32.89796,55.846383 c -6.4e-4,-3.095332 0.19593,-7.639941 0.39489,-9.132193 0.0645,-0.483765 0.0545,-0.505807 -0.073,-0.160262 -0.0813,0.22036 -0.32946,1.518482 -0.55152,2.884714 -2.01411,12.391745 -1.40251,23.11594 1.91021,33.494734 1.83535,5.75017 4.933949,12.209036 10.648509,22.196274 3.9284,6.86559 5.67182,10.10023 7.21262,13.38187 3.32439,7.08038 5.23412,13.61965 6.1078,20.91418 0.095,0.79329 0.2178,3.13712 0.27287,5.20851 0.10933,4.11285 0.2103,4.0822 0.52791,-0.16026 z m -17.86271,33.13414 c 1.25662,-3.72652 2.31782,-8.29746 2.89282,-12.46036 0.35054,-2.53786 0.40147,-9.67454 0.0869,-12.1799 -0.85177,-6.78436 -3.09372,-13.55912 -6.708919,-20.27313 -2.05515,-3.81675 -4.09945,-7.08361 -9.47111,-15.13513 -2.84858,-4.2697 -5.78094,-8.7464 -6.51637,-9.94822 -6.107631,-9.980948 -9.107371,-17.757584 -10.291961,-26.681244 -0.38827,-2.924849 -0.38812,-9.552183 3.2e-4,-12.740821 0.34023,-2.793189 1.027,-6.359092 1.78678,-9.277445 0.61285,-2.353955 1.70123,-5.823347 1.79685,-5.727726 0.0332,0.03323 -0.0494,0.556301 -0.18371,1.162382 -0.94432,4.262624 -1.38132,8.337752 -1.38132,12.881217 0,12.515009 3.66666,23.418613 12.880371,38.302587 0.79118,1.27809 3.0736,4.84793 5.07204,7.93297 6.22828,9.61475 8.006359,12.56563 10.332729,17.14802 8.23157,16.21427 8.38235,30.10778 0.50131,46.19549 -0.65849,1.3442 -1.23177,2.444 -1.27396,2.444 -0.0422,0 0.17258,-0.73921 0.47724,-1.64269 z"
         style="fill:url(#linearGradient4511);stroke-width:0.1602619;fill-opacity:1.0" />
    </g>
  </g>
</svg>
